<?xml version="1.0" standalone="no"?>
<!DOCTYPE svg PUBLIC "-//W3C//DTD SVG 20010904//EN"
 "http://www.w3.org/TR/2001/REC-SVG-20010904/DTD/svg10.dtd">
<svg version="1.0" xmlns="http://www.w3.org/2000/svg"
 width="77.000000pt" height="75.000000pt" viewBox="0 0 77.000000 75.000000"
 preserveAspectRatio="xMidYMid meet">

<g transform="translate(0.000000,75.000000) scale(0.100000,-0.100000)"
fill="#8290a1" stroke="none">
<path d="M85 741 c-11 -5 -33 -23 -50 -41 l-30 -31 0 -294 0 -295 38 -37 37
-38 305 0 305 0 37 38 38 37 0 295 0 295 -38 37 -37 38 -293 2 c-160 1 -301
-2 -312 -6z m573 -328 c3 -200 6 -194 -100 -194 -92 -1 -138 41 -138 126 0 74
61 135 135 135 23 0 25 3 25 48 0 58 5 64 45 60 l30 -3 3 -172z m-430 87 c18
-33 35 -60 37 -60 3 0 18 27 35 60 28 56 33 60 65 60 19 0 35 -4 35 -9 0 -5
-20 -42 -46 -83 l-45 -75 50 -81 c28 -45 51 -84 51 -87 0 -3 -19 -5 -43 -5
-43 0 -43 0 -72 60 -16 33 -31 60 -34 60 -3 0 -19 -25 -35 -56 -32 -61 -40
-67 -85 -62 l-30 3 50 82 51 81 -46 78 c-25 43 -46 82 -46 86 0 5 17 8 38 8
35 0 39 -3 70 -60z"/>
<path d="M511 394 c-12 -15 -21 -37 -21 -50 0 -31 33 -64 65 -64 24 0 25 2 25
70 0 67 -1 70 -24 70 -15 0 -33 -11 -45 -26z"/>
</g>
</svg>
