<?xml version="1.0" encoding="UTF-8"?>
<svg version="1.1" xmlns="http://www.w3.org/2000/svg" width="500" height="500">
<path d="M0 0 C1.01690918 0.00182281 2.03381836 0.00364563 3.08154297 0.00552368 C17.73032717 0.04976633 31.9715509 0.41454331 46.375 3.3125 C47.6755835 3.55395752 47.6755835 3.55395752 49.00244141 3.80029297 C85.341132 10.62978871 119.84301943 26.19172984 149.375 48.3125 C150.17035156 48.90546875 150.96570313 49.4984375 151.78515625 50.109375 C154.01327163 51.80775696 156.19849406 53.54846219 158.375 55.3125 C159.31214844 56.06402344 160.24929688 56.81554688 161.21484375 57.58984375 C174.49784254 68.42426706 187.04444366 80.60909411 197.375 94.3125 C197.78878906 94.84987793 198.20257813 95.38725586 198.62890625 95.94091797 C206.3174756 105.94110165 213.03181838 116.4159453 219.375 127.3125 C219.7369043 127.92496582 220.09880859 128.53743164 220.47167969 129.16845703 C232.8651049 150.32029805 241.02429351 174.5353741 246.125 198.4375 C246.32391846 199.3663501 246.52283691 200.2952002 246.7277832 201.25219727 C250.00488474 217.48024661 250.74889005 233.42391226 250.6875 249.9375 C250.68476578 251.46236526 250.68476578 251.46236526 250.68197632 253.01803589 C250.6377631 267.65145969 250.33115228 281.93098061 247.375 296.3125 C247.21402832 297.14185059 247.05305664 297.97120117 246.88720703 298.82568359 C239.65940203 335.24243404 224.60667703 369.63245499 202.375 399.3125 C201.48554687 400.50552734 201.48554687 400.50552734 200.578125 401.72265625 C198.87974304 403.95077163 197.13903781 406.13599406 195.375 408.3125 C194.62347656 409.24964844 193.87195313 410.18679688 193.09765625 411.15234375 C182.26323294 424.43534254 170.07840589 436.98194366 156.375 447.3125 C155.83762207 447.72628906 155.30024414 448.14007813 154.74658203 448.56640625 C144.74639835 456.2549756 134.2715547 462.96931838 123.375 469.3125 C122.76253418 469.6744043 122.15006836 470.03630859 121.51904297 470.40917969 C100.36720195 482.8026049 76.1521259 490.96179351 52.25 496.0625 C50.85672485 496.36087769 50.85672485 496.36087769 49.43530273 496.6652832 C33.20725281 499.94238485 17.26358702 500.68638442 0.75 500.625 C-0.26690918 500.62317719 -1.28381836 500.62135437 -2.33154297 500.61947632 C-16.98032717 500.57523367 -31.2215509 500.21045669 -45.625 497.3125 C-46.49205566 497.15152832 -47.35911133 496.99055664 -48.25244141 496.82470703 C-84.591132 489.99521129 -119.09301943 474.43327016 -148.625 452.3125 C-149.81802734 451.42304687 -149.81802734 451.42304687 -151.03515625 450.515625 C-153.26327163 448.81724304 -155.44849406 447.07653781 -157.625 445.3125 C-158.56214844 444.56097656 -159.49929687 443.80945313 -160.46484375 443.03515625 C-173.74784254 432.20073294 -186.29444366 420.01590589 -196.625 406.3125 C-197.03878906 405.77512207 -197.45257813 405.23774414 -197.87890625 404.68408203 C-205.5674756 394.68389835 -212.28181838 384.2090547 -218.625 373.3125 C-218.9869043 372.70003418 -219.34880859 372.08756836 -219.72167969 371.45654297 C-232.1151049 350.30470195 -240.27429351 326.0896259 -245.375 302.1875 C-245.57391846 301.2586499 -245.77283691 300.3297998 -245.9777832 299.37280273 C-249.25488485 283.14475281 -249.99888442 267.20108702 -249.9375 250.6875 C-249.93567719 249.67059082 -249.93385437 248.65368164 -249.93197632 247.60595703 C-249.88773367 232.95717283 -249.52295669 218.7159491 -246.625 204.3125 C-246.46402832 203.44544434 -246.30305664 202.57838867 -246.13720703 201.68505859 C-239.30771129 165.346368 -223.74577016 130.84448057 -201.625 101.3125 C-201.03203125 100.51714844 -200.4390625 99.72179687 -199.828125 98.90234375 C-198.12974304 96.67422837 -196.38903781 94.48900594 -194.625 92.3125 C-193.87347656 91.37535156 -193.12195313 90.43820313 -192.34765625 89.47265625 C-181.51323294 76.18965746 -169.32840589 63.64305634 -155.625 53.3125 C-155.08762207 52.89871094 -154.55024414 52.48492187 -153.99658203 52.05859375 C-143.99639835 44.3700244 -133.5215547 37.65568162 -122.625 31.3125 C-122.01253418 30.9505957 -121.40006836 30.58869141 -120.76904297 30.21582031 C-99.61720195 17.8223951 -75.4021259 9.66320649 -51.5 4.5625 C-50.5711499 4.36358154 -49.6422998 4.16466309 -48.68530273 3.9597168 C-32.45725281 0.68261515 -16.51358702 -0.06138442 0 0 Z M-75.625 133.3125 C-76.25792969 133.89257812 -76.89085937 134.47265625 -77.54296875 135.0703125 C-87.64188313 144.61750472 -95.40696532 156.52991768 -102.625 168.3125 C-103.22957031 169.26253906 -103.83414063 170.21257812 -104.45703125 171.19140625 C-118.03738294 193.23265425 -124.74345424 218.95380549 -128.625 244.3125 C-128.81191406 245.50617188 -128.99882812 246.69984375 -129.19140625 247.9296875 C-134.40029175 288.56837976 -128.14146574 334.81304342 -102.8125 368.1875 C-94.63058295 378.25755175 -85.67349961 387.41177599 -74.625 394.3125 C-73.58472656 395.03953125 -73.58472656 395.03953125 -72.5234375 395.78125 C-60.10346269 404.03197532 -44.28639125 409.0747087 -29.625 411.3125 C-28.8309375 411.44140625 -28.036875 411.5703125 -27.21875 411.703125 C3.81871209 415.74224678 35.08187426 407.73052719 60.375 389.3125 C66.70813171 384.32828214 72.71214506 379.05085967 78.375 373.3125 C78.98601562 372.74789063 79.59703125 372.18328125 80.2265625 371.6015625 C95.75347239 357.03225939 112.86201364 332.1839451 113.75 310.375 C113.63674138 306.86398291 112.9921289 304.82058186 110.375 302.3125 C107.97693669 302.43372319 107.97693669 302.43372319 105.375 303.3125 C103.54955527 305.45334565 103.54955527 305.45334565 102.140625 308.23828125 C101.57134277 309.25688232 101.00206055 310.2754834 100.41552734 311.32495117 C99.82465332 312.41396729 99.2337793 313.5029834 98.625 314.625 C97.37756799 316.8388598 96.12500809 319.0498385 94.8671875 321.2578125 C94.26487305 322.31516602 93.66255859 323.37251953 93.04199219 324.46191406 C77.84609914 350.44715823 53.16390173 369.91940531 24.375 378.3125 C23.47136719 378.57804687 22.56773437 378.84359375 21.63671875 379.1171875 C1.07534238 383.90500401 -20.78392789 380.20318653 -38.625 369.3125 C-60.93063041 354.13690319 -70.95000223 329.3286982 -75.8984375 303.77734375 C-77.60602455 293.8478395 -77.82969467 283.99932208 -77.8125 273.9375 C-77.81156342 273.22874725 -77.81062683 272.51999451 -77.80966187 271.7897644 C-77.66969603 222.78724172 -64.19852995 173.39004674 -29.375 137.5625 C-13.23774468 121.54563602 7.69330366 111.15806265 30.5625 110.9375 C41.68478288 111.03548914 49.95945996 112.63120171 58.375 120.3125 C67.57372065 129.72028248 68.70139161 140.11696447 68.68310547 152.6328125 C68.46423747 166.84310502 63.87078446 178.10710739 57.81689453 190.81445312 C57.17469971 192.16313477 57.17469971 192.16313477 56.51953125 193.5390625 C55.93715698 194.73909912 55.93715698 194.73909912 55.34301758 195.96337891 C53.82977978 199.6356044 53.02980549 202.22760298 54.25 206.0625 C57.02290192 208.9985138 58.90047876 209.23042605 62.8515625 209.44140625 C73.29123284 208.9081104 84.25213798 202.82810128 91.375 195.3125 C98.36468011 187.23187163 102.7362611 179.33759698 106.375 169.3125 C106.63023437 168.61898437 106.88546875 167.92546875 107.1484375 167.2109375 C111.73606131 152.11832005 109.60830759 135.09204638 102.375 121.3125 C100.26732862 118.08308466 97.93908479 115.18873424 95.375 112.3125 C94.86453125 111.70921875 94.3540625 111.1059375 93.828125 110.484375 C79.68571039 94.94172132 56.90175202 89.38615336 36.69677734 88.1484375 C-6.8084149 86.29287572 -44.5659383 103.77188131 -75.625 133.3125 Z " fill="#8290a1" transform="translate(249.625,-0.3125)"/>
</svg>
