<?xml version="1.0" encoding="UTF-8"?>
<svg version="1.1" xmlns="http://www.w3.org/2000/svg" width="256" height="256">
<path d="M0 0 C74.58 0 149.16 0 226 0 C226 6.52562265 225.88111881 12.77595826 225.28541565 19.23501587 C225.17009276 20.54406043 225.17009276 20.54406043 225.05244011 21.87955034 C224.79639271 24.7737684 224.53407507 27.66738183 224.27172852 30.56103516 C224.08578548 32.64799206 223.9002285 34.7349834 223.71502686 36.82200623 C223.21279455 42.4688299 222.70507736 48.11514821 222.19627881 53.76138353 C221.66388655 59.67906265 221.13630938 65.59717112 220.60813904 71.51522827 C219.72080354 81.44987203 218.83015553 91.38421423 217.93725586 101.31835938 C216.79198732 114.06047237 215.6521318 126.80306347 214.51400852 139.54581642 C213.53422795 150.51528914 212.55201463 161.48454382 211.56938434 172.45376158 C211.25417923 175.97351423 210.93929647 179.49329562 210.62445259 183.0130806 C210.12928069 188.54703503 209.6325912 194.08085132 209.13473511 199.6145649 C208.95245164 201.64299177 208.7706396 203.67146107 208.5893383 205.69997597 C208.3413949 208.47308768 208.09170444 211.24603678 207.84156799 214.01895142 C207.77055282 214.81759947 207.69953764 215.61624753 207.62637049 216.43909705 C207.18475898 221.3084408 206.63084037 226.15142761 206 231 C193.06634463 234.72361735 180.12504546 238.41993631 167.17803955 242.09686279 C163.96056444 243.01120682 160.74370683 243.92770251 157.52685547 244.84423828 C152.18141613 246.36562388 146.8326256 247.87471408 141.48147583 249.37588501 C139.41914414 249.95619374 137.35782925 250.54012884 135.2975769 251.1277771 C132.39637796 251.95445887 129.49174213 252.76780434 126.5859375 253.578125 C125.73237167 253.82442154 124.87880585 254.07071808 123.99937439 254.32447815 C123.19311111 254.54643356 122.38684784 254.76838898 121.55615234 254.99707031 C120.86564789 255.19181946 120.17514343 255.3865686 119.4637146 255.58721924 C112.58509561 256.73969103 106.83193292 255.71741126 100.24487305 253.81274414 C98.99213844 253.46402504 98.99213844 253.46402504 97.71409607 253.10826111 C94.9771015 252.34372817 92.24449736 251.56461144 89.51171875 250.78515625 C87.60244672 250.24858115 85.69292201 249.71290442 83.78315735 249.17808533 C78.77254534 247.77219945 73.76556496 246.35378139 68.75921631 244.93280029 C63.65616511 243.4869679 58.54956523 242.05378311 53.44335938 240.61914062 C45.99652591 238.52454114 38.55077565 236.42617236 31.1081543 234.31665039 C29.93694031 233.98541672 29.93694031 233.98541672 28.74206543 233.64749146 C25.80793962 232.81453054 22.89400551 231.9646685 20 231 C15.80506218 186.76234729 11.75295839 142.51267936 7.79902673 98.25285649 C7.00565927 89.37230155 6.20843842 80.49210305 5.40813696 71.61217034 C4.77644579 64.60044448 4.14815405 57.58841915 3.52243936 50.57615745 C3.15354551 46.44287046 2.7832763 42.30971884 2.40935135 38.1768837 C2.06229057 34.3400389 1.71947122 30.5028382 1.37985992 26.66532707 C1.25562426 25.26963474 1.12989996 23.87407392 1.00250626 22.47866631 C0.82790394 20.56355323 0.65940101 18.64788708 0.49111938 16.73220825 C0.39567148 15.66677858 0.30022358 14.60134892 0.20188332 13.5036335 C-0.05708099 9.00937405 0 4.50171417 0 0 Z M43 48 C43.67747723 61.52860795 43.67747723 61.52860795 45 75 C80.64 75 116.28 75 153 75 C152.34 81.6 151.68 88.2 151 95 C151 98.3 151 101.6 151 105 C117.01 105 83.02 105 48 105 C48.67747723 118.52860795 48.67747723 118.52860795 50 132 C82.34 132 114.68 132 148 132 C147.01 142.23 146.02 152.46 145 163 C145 165.31 145 167.62 145 170 C144.41476563 170.08636719 143.82953125 170.17273438 143.2265625 170.26171875 C138.60175237 171.01863212 134.10214856 171.93138971 129.61328125 173.28125 C128.45675049 173.62603394 128.45675049 173.62603394 127.27685547 173.9777832 C125.75409253 174.43976106 124.23577415 174.91674076 122.72314453 175.41088867 C112.93098982 178.36900345 104.12249484 175.72718028 94.5625 172.9375 C92.62726576 172.38075388 90.69110502 171.82721529 88.75390625 171.27734375 C87.91158447 171.03234131 87.0692627 170.78733887 86.20141602 170.53491211 C83.89171612 169.88194246 83.89171612 169.88194246 81 170 C80.93941406 168.92621094 80.87882812 167.85242188 80.81640625 166.74609375 C80.73192349 165.30988685 80.64727946 163.87368942 80.5625 162.4375 C80.52318359 161.73302734 80.48386719 161.02855469 80.44335938 160.30273438 C80.38051758 159.25375977 80.38051758 159.25375977 80.31640625 158.18359375 C80.26141968 157.23311157 80.26141968 157.23311157 80.20532227 156.26342773 C79.92401179 153.16232265 79.44036322 150.08254255 79 147 C70.09 147 61.18 147 52 147 C52 153.25634247 52.06984888 159.22940252 52.65625 165.4140625 C52.72283813 166.15457855 52.78942627 166.8950946 52.85803223 167.65805054 C53.06784486 169.98076982 53.28379648 172.30286783 53.5 174.625 C53.64494147 176.21741063 53.78947595 177.80985836 53.93359375 179.40234375 C54.28437299 183.26867276 54.64065181 187.13445839 55 191 C62.53984201 193.15088137 70.08418585 195.28537316 77.63183594 197.40869141 C80.19774151 198.13133916 82.76172944 198.85996494 85.32519531 199.59130859 C89.01618054 200.64362595 92.71074477 201.68243369 96.40625 202.71875 C97.5461438 203.04685669 98.6860376 203.37496338 99.86047363 203.7130127 C111.0973746 206.83611961 118.16414342 206.01514505 129.33984375 202.7890625 C131.08389244 202.29676651 131.08389244 202.29676651 132.86317444 201.79452515 C135.30776621 201.10180572 137.75089927 200.40392009 140.19262695 199.70117188 C143.94554419 198.62268833 147.70368615 197.56414626 151.46289062 196.5078125 C153.83887609 195.83190363 156.21453918 195.1548603 158.58984375 194.4765625 C159.71889633 194.15877838 160.84794891 193.84099426 162.01121521 193.51358032 C163.046418 193.2134201 164.08162079 192.91325989 165.14819336 192.60400391 C166.06338242 192.34197174 166.97857147 192.07993958 167.92149353 191.80996704 C170.1809738 191.19722379 170.1809738 191.19722379 171 189 C171.23491918 187.24503131 171.41778685 185.48299196 171.57582092 183.71943665 C171.67816544 182.59930679 171.78050995 181.47917694 171.88595581 180.32510376 C171.9945694 179.09029266 172.10318298 177.85548157 172.21508789 176.58325195 C172.3908712 174.63921227 172.3908712 174.63921227 172.57020569 172.65589905 C172.8921012 169.09400936 173.20885426 165.53167919 173.52454305 161.9692347 C173.85564718 158.24066998 174.19087004 154.51247532 174.52549744 150.78422546 C175.08732181 144.51729176 175.64583865 138.25006984 176.20239258 131.98266602 C176.8450943 124.7455788 177.49287445 117.50896006 178.1434384 110.27257568 C178.76943824 103.30819209 179.39190835 96.34349735 180.01275444 89.37865257 C180.27677567 86.41741028 180.54200524 83.45627993 180.80821419 80.49523354 C181.18053223 76.35171262 181.54767826 72.20774893 181.91430664 68.0637207 C182.02494446 66.83903076 182.13558228 65.61434082 182.24957275 64.35253906 C182.34909744 63.21831009 182.44862213 62.08408112 182.55116272 60.91548157 C182.68195268 59.44681373 182.68195268 59.44681373 182.81538486 57.94847584 C183.02265185 54.63822882 183 51.31672955 183 48 C136.8 48 90.6 48 43 48 Z " fill="#8290a1" transform="translate(15,0)"/>
<path d="M0 0 C30.36 0 60.72 0 92 0 C90.85962813 25.08818123 90.85962813 25.08818123 89.84545898 34.75268555 C88.16176681 51.0364101 86.69016011 67.33867567 85.28515625 83.6484375 C85.17202591 84.96154309 85.17202591 84.96154309 85.05661011 86.30117607 C84.28981138 95.20993854 83.52830391 104.11914945 82.76950932 113.02859688 C81.07246299 132.94134049 79.29222831 152.84096996 77.32197571 172.72868347 C76.80671492 177.96380246 76.30914742 183.20058754 75.8125 188.4375 C75.72895767 189.3169075 75.64541534 190.196315 75.55934143 191.10237122 C75.37266203 193.06822544 75.18628847 195.0341087 75 197 C59.20424936 201.58146743 43.3853259 206.02437642 27.47998047 210.20898438 C20.23706533 212.1180163 13.03963635 214.12611612 5.85888672 216.25683594 C3 217 3 217 0 217 C0 207.1 0 197.2 0 187 C6.98174434 185.04315474 13.96362043 183.08704801 20.94756317 181.1381073 C24.19974305 180.23032251 27.45152541 179.32116709 30.70239258 178.40869141 C34.43210136 177.36257961 38.16316304 176.32142499 41.89453125 175.28125 C43.06023148 174.95314331 44.2259317 174.62503662 45.42695618 174.2869873 C46.50785019 173.98667603 47.5887442 173.68636475 48.70239258 173.37695312 C50.13135612 172.97724304 50.13135612 172.97724304 51.58918762 172.56945801 C54 172 54 172 57 172 C57.05484747 171.37237574 57.10969494 170.74475147 57.16620445 170.09810829 C58.50806585 154.74475667 59.85228249 139.39161329 61.19904137 124.03869057 C61.85029873 116.61378304 62.50079228 109.18881015 63.14941406 101.76367188 C63.71551557 95.28321291 64.2831252 88.802888 64.8524605 82.3227123 C65.1531712 78.8994444 65.45318467 75.47611897 65.75138474 72.05263138 C66.08668731 68.20760135 66.42465469 64.36281355 66.76318359 60.51806641 C66.90668495 58.86187538 66.90668495 58.86187538 67.05308533 57.17222595 C67.8865566 47.75779202 68.95534299 38.40191313 70 29 C46.9 29 23.8 29 0 29 C0 19.43 0 9.86 0 0 Z " fill="#8290a1" transform="translate(128,19)"/>
<path d="M0 0 C11.55 0 23.1 0 35 0 C34.46086888 12.75943659 33.57617006 25.329429 32 38 C27.92624972 39.14425631 23.85112696 40.28344567 19.7746582 41.41796875 C18.38820225 41.80460005 17.00213034 42.19261125 15.61645508 42.58203125 C13.6242051 43.14166005 11.630625 43.69630551 9.63671875 44.25 C8.43748779 44.58515625 7.23825684 44.9203125 6.00268555 45.265625 C3 46 3 46 0 46 C0 30.82 0 15.64 0 0 Z " fill="#8290a1" transform="translate(128,132)"/>
<path d="M0 0 C13.2 0 26.4 0 40 0 C40 10.125 40 10.125 39.5625 14.47265625 C39.48128906 15.30289307 39.40007812 16.13312988 39.31640625 16.98852539 C39.21199219 18.00293701 39.10757813 19.01734863 39 20.0625 C38.67 23.341875 38.34 26.62125 38 30 C25.46 30 12.92 30 0 30 C0 20.1 0 10.2 0 0 Z " fill="#8290a1" transform="translate(128,75)"/>
</svg>
