<?xml version="1.0" encoding="UTF-8"?>
<svg version="1.1" xmlns="http://www.w3.org/2000/svg" width="75" height="75">
<path d="M0 0 C22.11 0 44.22 0 67 0 C64.66728625 32.65799257 64.66728625 32.65799257 63.62231445 44.30908203 C63.43015957 46.45705375 63.24328632 48.6054494 63.05664062 50.75390625 C62.93259253 52.15627665 62.80825629 53.55862159 62.68359375 54.9609375 C62.57587646 56.17571777 62.46815918 57.39049805 62.35717773 58.64208984 C62.02221438 61.79115753 61.55670621 64.88327746 61 68 C57.15048201 69.18239367 53.29473492 70.34305287 49.4375 71.5 C48.35146484 71.83386719 47.26542969 72.16773437 46.14648438 72.51171875 C35.29029947 75.74547596 28.28100902 74.79506687 17.5625 71.5 C16.44939453 71.16613281 15.33628906 70.83226563 14.18945312 70.48828125 C11.45694118 69.66735492 8.7273977 68.83773028 6 68 C4.38249589 56.01022356 3.19762205 44.00221956 2.14013672 31.95141602 C1.87262963 28.91055502 1.59867646 25.87031883 1.32421875 22.83007812 C1.1506588 20.87503395 0.97746817 18.91995695 0.8046875 16.96484375 C0.72346649 16.06684555 0.64224548 15.16884735 0.55856323 14.24363708 C0.48493561 13.39487503 0.41130798 12.54611298 0.33544922 11.67163086 C0.27042206 10.93601425 0.2053949 10.20039764 0.13839722 9.44248962 C-0.03968087 6.29969614 0 3.1478346 0 0 Z M13 14 C13.66 21.92 14.32 29.84 15 38 C24.57 38 34.14 38 44 38 C43.67 41.96 43.34 45.92 43 50 C36.59345955 51.28130809 30.39375619 51.59843905 24 50 C23.67 47.69 23.34 45.38 23 43 C20.69 43 18.38 43 16 43 C15.979375 44.216875 15.95875 45.43375 15.9375 46.6875 C15.92009766 47.71423828 15.92009766 47.71423828 15.90234375 48.76171875 C16.01112226 51.25492215 16.45888861 53.56712913 17 56 C29.70595811 60.1579891 37.14863688 59.75618885 50 56 C50.33725065 52.95872183 50.66992332 49.91705809 51 46.875 C51.09539063 46.0190625 51.19078125 45.163125 51.2890625 44.28125 C51.42441406 43.02441406 51.42441406 43.02441406 51.5625 41.7421875 C51.64628906 40.9776123 51.73007812 40.21303711 51.81640625 39.42529297 C52.0284472 36.62420953 52 33.80909769 52 31 C42.1 31 32.2 31 22 31 C21.67 28.03 21.34 25.06 21 22 C31.56 22 42.12 22 53 22 C53.33 19.36 53.66 16.72 54 14 C40.47 14 26.94 14 13 14 Z " fill="#8290a1" transform="translate(4,0)"/>
<path d="M0 0 C8.91 0 17.82 0 27 0 C27 7.3814775 26.84265301 14.49486339 26.1953125 21.8125 C26.11127167 22.78864258 26.02723083 23.76478516 25.94064331 24.77050781 C25.76321459 26.81092793 25.58326897 28.85113066 25.40087891 30.89111328 C25.12330616 34.01908788 24.86018048 37.14807446 24.59765625 40.27734375 C24.42274901 42.26830614 24.24699834 44.25919466 24.0703125 46.25 C23.95455368 47.65149292 23.95455368 47.65149292 23.8364563 49.08129883 C23.75652435 49.94650146 23.67659241 50.8117041 23.59423828 51.703125 C23.49431076 52.84249512 23.49431076 52.84249512 23.3923645 54.00488281 C23 56 23 56 21 59 C19.06054687 59.79956055 19.06054687 59.79956055 16.71875 60.38671875 C15.45611328 60.7105957 15.45611328 60.7105957 14.16796875 61.04101562 C12.84732422 61.36102539 12.84732422 61.36102539 11.5 61.6875 C10.61957031 61.91244141 9.73914063 62.13738281 8.83203125 62.36914062 C2.35816394 64 2.35816394 64 0 64 C0 61.03 0 58.06 0 55 C2.08108685 54.32635339 4.1649671 53.66133202 6.25 53 C7.41015625 52.62875 8.5703125 52.2575 9.765625 51.875 C13 51 13 51 17 51 C17.09087891 49.04707031 17.09087891 49.04707031 17.18359375 47.0546875 C17.26804562 45.32811601 17.35269126 43.601554 17.4375 41.875 C17.47681641 41.0190625 17.51613281 40.163125 17.55664062 39.28125 C17.59853516 38.44335938 17.64042969 37.60546875 17.68359375 36.7421875 C17.72025146 35.9776123 17.75690918 35.21303711 17.79467773 34.42529297 C18.03400057 31.59838094 18.53359607 28.79842356 19 26 C9.1 26 -0.8 26 -11 26 C-11.33 23.03 -11.66 20.06 -12 17 C-1.44 17 9.12 17 20 17 C20 15.02 20 13.04 20 11 C20.33 10.34 20.66 9.68 21 9 C14.07 9 7.14 9 0 9 C0 6.03 0 3.06 0 0 Z " fill="#8290a1" transform="translate(37,5)"/>
<path d="M0 0 C3.3 0 6.6 0 10 0 C10.08159574 4.16138263 9.98248524 7.9472484 9 12 C6.03 12.66 3.06 13.32 0 14 C0 9.38 0 4.76 0 0 Z " fill="#8290a1" transform="translate(38,38)"/>
<path d="M0 0 C3.96 0 7.92 0 12 0 C12 2.97 12 5.94 12 9 C8.37 9 4.74 9 1 9 C0.67 6.03 0.34 3.06 0 0 Z " fill="#8290a1" transform="translate(25,22)"/>
</svg>
