<?xml version="1.0" standalone="no"?>
<!DOCTYPE svg PUBLIC "-//W3C//DTD SVG 20010904//EN"
 "http://www.w3.org/TR/2001/REC-SVG-20010904/DTD/svg10.dtd">
<svg version="1.0" xmlns="http://www.w3.org/2000/svg"
 width="695.000000pt" height="719.000000pt" viewBox="0 0 695.000000 719.000000"
 preserveAspectRatio="xMidYMid meet">
<!-- Add this rectangle to create a white background -->
<rect width="100%" height="100%" fill="white"/>
<g transform="translate(0.000000,719.000000) scale(0.100000,-0.100000)"
fill="#000000" stroke="none">
<path d="M4790 5369 c-204 -92 -216 -376 -21 -482 131 -72 294 -26 366 104 26
47 30 64 30 134 0 88 -11 117 -68 181 -70 80 -207 108 -307 63z"/>
<path d="M4063 5095 c-200 -44 -324 -211 -324 -440 0 -105 12 -164 66 -320 48
-141 69 -251 59 -324 -17 -141 -83 -243 -196 -303 -62 -33 -204 -33 -266 0
-70 37 -127 96 -157 163 -39 88 -42 152 -12 289 14 63 28 136 32 161 15 113
-38 261 -125 349 -146 145 -365 159 -531 32 -121 -91 -165 -189 -163 -362 1
-152 33 -260 147 -506 88 -188 115 -262 133 -368 26 -150 3 -260 -116 -545
-169 -407 -211 -716 -121 -903 72 -152 251 -248 412 -219 141 25 264 112 322
230 29 59 32 75 32 151 0 74 -6 103 -48 227 -62 187 -86 289 -93 398 -13 194
58 345 194 412 49 24 69 28 142 28 68 0 94 -5 132 -24 175 -85 236 -291 178
-592 -37 -189 -15 -292 81 -390 101 -105 259 -144 412 -104 147 38 233 118
283 265 15 43 19 83 19 185 0 165 -17 230 -129 500 -133 320 -164 439 -153
585 9 106 41 214 139 460 117 293 140 380 140 524 -1 240 -129 414 -328 446
-73 12 -84 12 -161 -5z"/>
<path d="M1965 3327 c-104 -49 -158 -134 -158 -247 0 -77 18 -123 69 -180 59
-65 105 -85 199 -85 94 0 140 20 199 85 52 57 69 103 69 180 1 79 -24 141 -77
192 -54 52 -101 72 -181 76 -58 2 -79 -1 -120 -21z"/>
<path d="M2117 2610 c-36 -28 -50 -83 -33 -124 18 -43 39 -58 89 -63 36 -4 48
-1 75 22 41 34 52 86 27 130 -30 56 -109 73 -158 35z"/>
</g>
</svg>
